<svg xmlns="http://www.w3.org/2000/svg" xmlns:osb="http://www.openswatchbook.org/uri/2009/osb" xmlns:svg="http://www.w3.org/2000/svg" id="svg2" width="744.094" height="1052.362" version="1.1"><defs id="defs4"><linearGradient id="linearGradient4408" osb:paint="solid"><stop style="stop-color:#000;stop-opacity:1" id="stop4410" offset="0"/></linearGradient><marker id="Arrow1Lstart" orient="auto" refX="0" refY="0" style="overflow:visible"><path id="path3786" d="M 0.0,0.0 L 5.0,-5.0 L -12.5,0.0 L 5.0,5.0 L 0.0,0.0 z" transform="scale(0.8) translate(12.5,0)" style="fill-rule:evenodd;stroke:#000;stroke-width:1pt"/></marker></defs><metadata id="metadata7"/><g id="layer1"><path style="fill:#698cfe;fill-opacity:1;fill-rule:nonzero;stroke:#4073f4;stroke-width:2;stroke-miterlimit:4;stroke-opacity:1;stroke-dasharray:none;stroke-dashoffset:0" id="rect3816" d="m 9.52174,1029.3622 38.04348,0 5.434781,10 -5.434781,10 -44.56522,0 0,-6 0,-8 c 0,-1.662 0,-4 0,-6 2.173914,0 4.715218,0 6.52174,0 z"/><path style="fill:#ef9d0d;fill-opacity:1;fill-rule:nonzero;stroke:#a36c01;stroke-width:2;stroke-miterlimit:4;stroke-opacity:1;stroke-dasharray:none;stroke-dashoffset:0" id="rect3816-2" d="m 9.52174,993.36218 38.04348,0 5.43478,10.00002 -5.43478,10 -44.56522,0 0,-6 0,-8.00002 c 0,-1.662 0,-4 0,-6 2.173912,0 4.715218,0 6.52174,0 z"/></g></svg>